M48
; DRILL file KiCad 10.0.6 date 2026-09-01T02:00:31
; FORMAT={-:-/ absolute / metric / decimal}
; #@! TF.CreationDate,2026-09-01T02:00:31+02:00
; #@! TF.GenerationSoftware,Kicad,Pcbnew,10.0.6
; #@! TF.FileFunction,Plated,1,2,PTH
FMAT,2
METRIC
; #@! TA.AperFunction,Plated,PTH,ViaDrill
T1C0.300
; #@! TA.AperFunction,Plated,PTH,ComponentDrill
T2C0.600
; #@! TA.AperFunction,Plated,PTH,ComponentDrill
T3C1.300
; #@! TA.AperFunction,Plated,PTH,ComponentDrill
T4C1.550
%
G90
G05
T1
X78.76Y-38.14
X79.32Y-26.47
X79.47Y-21.97
X79.52Y-30.28
X79.71Y-34.7
X79.77Y-39.24
X79.8Y-37.11
X80.304Y-44.11
X80.57Y-31.22
X80.93Y-33.89
X81.56Y-30.26
X81.64Y-32.39
X81.86Y-36.27
X81.97Y-34.74
X82.43Y-27.29
X82.46Y-22.01
X82.46Y-40.05
X82.48Y-45.145
X82.82Y-48.75
X83.32Y-27.65
X83.88Y-48.41
X84.11Y-37.22
X84.13Y-30.4
X84.174Y-45.92
X84.18Y-32.17
X84.64Y-49.19
X84.84Y-77.26
X84.86Y-72.12
X84.887Y-45.558
X84.94Y-42.31
X85.25Y-31.14
X85.49Y-21.99
X86.04Y-50.47
X86.154Y-48.37
X86.35Y-30.3
X86.36Y-32.07
X86.91Y-51.5
X86.95Y-79.35
X86.96Y-26.38
X86.97Y-74.65
X86.98Y-70.16
X87.83Y-34.54
X87.854Y-46.17
X87.86Y-23.05
X88.05Y-68.23
X88.05Y-69.29
X88.05Y-70.41
X88.24Y-24.66
X88.32Y-67.32
X88.92Y-66.6
X88.95Y-35.6
X89.25Y-24.43
X89.39Y-26.74
X89.56Y-77.3
X89.78Y-66.12
X90.07Y-34.53
X90.57Y-49.27
X90.61Y-21.84
X90.69Y-65.97
X90.92Y-23.15
X90.96Y-68.95
X90.96Y-70.25
X91.29Y-42.92
X91.58Y-22.81
X91.79Y-65.97
X91.91Y-40.39
X91.94Y-68.95
X92.05Y-70.06
X92.1Y-74.65
X92.11Y-79.39
X92.47Y-42.01
X92.67Y-21.83
X92.71Y-65.97
X92.93Y-68.95
X93.24Y-48.95
X93.58Y-52.28
X93.69Y-54.82
X93.83Y-64.92
X93.88Y-65.97
X93.89Y-39.62
X93.89Y-68.95
X94.02Y-70.06
X94.14Y-72.13
X94.21Y-77.31
X94.47Y-22.51
X95.87Y-63.4
X95.9Y-71.67
X95.95Y-38.03
X96.79Y-20.29
X96.8Y-24.83
X98.0Y-39.6
X98.01Y-64.97
X98.04Y-70.09
X98.99Y-22.52
X107.76Y-25.58
X110.435Y-59.61
X110.435Y-61.511
X110.435Y-63.41
X110.435Y-65.31
X110.435Y-67.21
X110.46Y-23.57
X112.11Y-59.61
X112.11Y-61.511
X112.11Y-63.41
X112.11Y-65.31
X112.11Y-67.21
X112.62Y-20.28
X113.785Y-59.61
X113.785Y-61.511
X113.785Y-63.41
X113.785Y-65.31
X113.785Y-67.21
X114.73Y-21.54
X115.25Y-25.23
X115.46Y-59.61
X115.46Y-61.511
X115.46Y-63.41
X115.46Y-65.31
X115.46Y-67.21
X116.13Y-23.29
X116.15Y-24.27
X116.93Y-28.9
X117.02Y-21.21
X117.03Y-23.12
X117.135Y-59.61
X117.135Y-61.511
X117.135Y-63.41
X117.135Y-65.31
X117.135Y-67.21
X117.51Y-20.26
X117.82Y-54.77
X117.85Y-57.38
X117.94Y-39.61
X118.06Y-70.03
X118.27Y-26.72
X118.28Y-31.17
X119.56Y-28.94
X119.87Y-63.36
X119.88Y-38.01
X119.97Y-71.64
X119.98Y-58.92
X120.97Y-20.23
X121.06Y-21.88
X121.81Y-67.49
X121.85Y-70.02
X121.96Y-65.01
X122.03Y-54.84
X122.09Y-57.41
X122.23Y-52.28
X122.605Y-36.405
X122.66Y-44.75
X123.72Y-43.67
T3
X89.49Y-74.72
T4
X86.94Y-72.17
X86.94Y-77.27
X92.04Y-72.17
X92.04Y-77.27
T2
X78.19Y-20.58G85X78.19Y-19.78
G05
X78.19Y-24.92G85X78.19Y-23.82
G05
X86.83Y-20.58G85X86.83Y-19.78
G05
X86.83Y-24.92G85X86.83Y-23.82
G05
M30
